<svg width="302" height="78" viewBox="0 0 302 78" fill="none" xmlns="http://www.w3.org/2000/svg">
<path d="M232.151 77.3526C230.645 77.3526 229.43 76.7973 228.638 75.7462C227.823 74.6654 227.611 73.1576 228.055 71.6098L230.801 62.0341C231.708 58.8679 235.023 56.2922 238.19 56.2922H244.346C245.078 56.2922 245.721 55.8075 245.923 55.1041L246.985 51.401C247.127 50.9051 247.028 50.3723 246.718 49.9605C246.408 49.5495 245.923 49.3075 245.407 49.3075L231.917 49.3099C231.841 49.2995 231.771 49.2947 231.694 49.2947H227.149C225.643 49.2947 224.428 48.7394 223.636 47.6883C222.822 46.6075 222.609 45.0997 223.053 43.5527L223.583 41.7036C223.725 41.2085 223.626 40.6757 223.316 40.2639C223.006 39.8528 222.521 39.6109 222.006 39.6109H220.265C219.532 39.6109 218.889 40.0956 218.687 40.7998L217.898 43.5527C216.991 46.7189 213.676 49.2947 210.509 49.2947H204.369C203.638 49.2947 202.995 49.7778 202.792 50.4796L201.047 56.518C201.04 56.5412 201.02 56.6029 201.013 56.6262L198.522 65.2548C198.511 65.2844 198.496 65.3317 198.487 65.3622L196.685 71.6081C195.777 74.7768 192.462 77.3526 189.295 77.3526H179.72C178.214 77.3526 176.999 76.7973 176.207 75.7462C175.393 74.6663 175.18 73.1584 175.624 71.6106L183.649 43.7731C183.659 43.7442 183.678 43.6866 183.687 43.657L184.247 41.7053C184.39 41.2102 184.292 40.6766 183.982 40.2648C183.671 39.8529 183.186 39.611 182.671 39.611H180.947C180.216 39.611 179.574 40.0949 179.371 40.7967L175.878 52.9016C175.867 52.9312 175.852 52.9793 175.844 53.009L174.525 57.5781C173.617 60.7475 170.302 63.3241 167.136 63.3241H157.56C156.054 63.3241 154.839 62.7688 154.047 61.7177C153.233 60.6361 153.02 59.1284 153.464 57.5813L159.283 37.3789C159.426 36.8838 159.327 36.3502 159.017 35.9376C158.707 35.5258 158.222 35.2839 157.706 35.2839H155.973C155.241 35.2839 154.597 35.7686 154.395 36.472L151.915 45.111C151.905 45.1399 151.889 45.1872 151.881 45.2168L148.311 57.5781C147.401 60.7475 144.086 63.3241 140.92 63.3241H131.345C129.839 63.3241 128.624 62.7688 127.832 61.7177C127.017 60.6369 126.805 59.1291 127.249 57.5813L129.995 48.0056C130.005 47.9768 130.02 47.9312 130.028 47.9015L133.072 37.362C133.215 36.8669 133.117 36.3325 132.807 35.9207C132.497 35.5089 132.012 35.2662 131.496 35.2662H129.779C129.048 35.2662 128.405 35.75 128.202 36.4519L127.954 37.314C127.945 37.3388 127.926 37.3973 127.919 37.4221L122.32 56.7984C122.312 56.824 122.291 56.8866 122.284 56.9122L122.093 57.5844C121.186 60.7474 117.871 63.324 114.705 63.324H105.129C103.623 63.324 102.408 62.7687 101.616 61.7176C100.802 60.6368 100.59 59.129 101.033 57.5812L101.561 55.7401C101.703 55.245 101.604 54.7122 101.294 54.3004C100.984 53.8894 100.499 53.6474 99.9839 53.6474H98.2486C97.518 53.6474 96.875 54.1306 96.6723 54.8332L95.8795 57.578C94.9706 60.7474 91.6558 63.324 88.4891 63.324H82.2836C81.5518 63.324 80.908 63.8087 80.7065 64.5121L78.6711 71.6097C77.7637 74.7768 74.4489 77.3525 71.2819 77.3525H61.7067C60.2001 77.3525 58.9851 76.7972 58.1932 75.7461C57.3788 74.6653 57.1664 73.1575 57.6107 71.6097L59.3861 65.4167C59.5283 64.9215 59.4293 64.3888 59.1193 63.9769C58.8093 63.5659 58.3242 63.324 57.809 63.324H52.6987C51.1929 63.324 49.9779 62.7687 49.1852 61.7176C48.3712 60.6368 48.1585 59.129 48.6024 57.582L49.1304 55.7401C49.2722 55.245 49.1732 54.7122 48.8632 54.3004C48.5532 53.8894 48.068 53.6474 47.5528 53.6474H45.8123C45.0804 53.6474 44.437 54.1321 44.2351 54.8356L43.4476 57.5812C42.5399 60.7483 39.225 63.324 36.0584 63.324L22.9428 63.3472L13.3395 63.348C11.8334 63.348 10.6184 62.7928 9.82643 61.7417C9.01243 60.6609 8.7997 59.1531 9.24362 57.606L11.0266 51.3882C11.1688 50.8922 11.0698 50.3595 10.7598 49.9476C10.4498 49.5366 9.96467 49.2947 9.44946 49.2947H4.32319C2.81702 49.2947 1.60201 48.7394 0.810076 47.6883C-0.003924 46.6075 -0.216654 45.0997 0.227265 43.5527L5.00068 26.9644C5.00946 26.9396 5.02915 26.8772 5.03669 26.8523L6.57773 21.5093C6.59176 21.4708 6.60374 21.4331 6.61498 21.3939L7.0292 19.9478C7.93689 16.7816 11.2514 14.205 14.418 14.205H20.5514C21.2832 14.205 21.927 13.7203 22.1285 13.0169L24.1567 5.94417C25.0645 2.7771 28.3793 0.201372 31.5463 0.201372L44.6915 0.176514H54.2647C55.7709 0.176514 56.9859 0.73176 57.7778 1.78286C58.5922 2.86365 58.8045 4.37146 58.3606 5.91931L55.615 15.4958C54.7069 18.662 51.392 21.2377 48.2254 21.2377L35.0802 21.2618H28.9493C28.2178 21.2618 27.5745 21.7465 27.3722 22.4491L24.6678 31.8605C24.6578 31.8901 24.6425 31.9375 24.6342 31.9671L22.2615 40.1839C22.1181 40.6798 22.2166 41.2142 22.5274 41.6268C22.8375 42.0378 23.3226 42.2797 23.8378 42.2797C23.839 42.2797 32.5241 42.2629 32.5241 42.2629H42.0973C43.6034 42.2629 44.8184 42.8182 45.6104 43.8693C46.4248 44.9501 46.6371 46.4579 46.1932 48.0057L45.6464 49.9141C45.5042 50.4093 45.6032 50.942 45.9132 51.3539C46.2232 51.7649 46.7083 52.0068 47.2235 52.0068H48.9641C49.6956 52.0068 50.3389 51.5221 50.5412 50.8195L51.5735 47.2278C51.5835 47.1982 55.4032 33.9797 55.4032 33.9797C56.3117 30.8102 59.6265 28.2345 62.7936 28.2345H68.9057C69.6376 28.2345 70.2813 27.7498 70.4828 27.0456L72.5126 19.9656C73.4211 16.7994 76.7363 14.2228 79.9026 14.2228H89.4774C90.9836 14.2228 92.1986 14.7781 92.9905 15.8292C93.8049 16.91 94.0176 18.4178 93.5737 19.9648L91.8027 26.1418C91.6606 26.6369 91.7595 27.1697 92.0695 27.5816C92.3795 27.9926 92.8647 28.2345 93.3799 28.2345H98.5843C100.09 28.2345 101.305 28.7898 102.097 29.8409C102.912 30.9216 103.124 32.4295 102.68 33.9773L98.0944 49.9126C97.9518 50.4077 98.0503 50.9413 98.3603 51.3531C98.67 51.765 99.1555 52.0069 99.6711 52.0069H101.395C102.126 52.0069 102.769 51.523 102.972 50.8204L105.131 43.331C105.138 43.3086 105.158 43.2485 105.164 43.2261L110.763 23.849C110.774 23.8185 110.789 23.7696 110.798 23.7392L111.89 19.9504C112.799 16.7818 116.114 14.2053 119.28 14.2053H141.957C143.463 14.2053 144.678 14.7612 145.47 15.8124C146.285 16.8924 146.498 18.4002 146.054 19.9472L144.278 26.1411C144.135 26.637 144.234 27.1698 144.544 27.5808C144.854 27.9927 145.339 28.2346 145.855 28.2346H147.643C148.375 28.2346 149.019 27.7499 149.22 27.0465L151.251 19.9657C152.159 16.7994 155.474 14.2229 158.64 14.2229H168.215C169.722 14.2229 170.937 14.7781 171.729 15.8292C172.543 16.91 172.755 18.4179 172.311 19.9657L170.541 26.1419C170.399 26.637 170.498 27.1698 170.808 27.5816C171.118 27.9927 171.603 28.2346 172.118 28.2346H177.231C178.737 28.2346 179.952 28.7898 180.744 29.8409C181.558 30.9217 181.77 32.4295 181.326 33.9766L180.782 35.8778C180.639 36.3729 180.738 36.9056 181.048 37.3175C181.358 37.7285 181.844 37.9704 182.359 37.9704H184.093C184.824 37.9704 185.467 37.4873 185.67 36.7855L190.536 19.9513C191.445 16.7811 194.76 14.2053 197.926 14.2053H204.082C204.814 14.2053 205.457 13.7207 205.659 13.0172L207.695 5.91964C208.603 2.75257 211.918 0.176842 215.084 0.176842H224.659C226.166 0.176842 227.381 0.732088 228.173 1.78318C228.987 2.86398 229.2 4.37179 228.755 5.91964L226.01 15.4961C225.102 18.6623 221.787 21.2381 218.621 21.2381H212.464C211.733 21.2381 211.089 21.7227 210.887 22.427L209.822 26.142C209.68 26.6371 209.779 27.1699 210.089 27.5817C210.399 27.9927 210.884 28.2347 211.399 28.2347H216.548C218.054 28.2347 219.269 28.7899 220.061 29.841C220.876 30.921 221.088 32.4288 220.644 33.9767L220.099 35.8778C219.957 36.373 220.056 36.9057 220.366 37.3176C220.676 37.7286 221.161 37.9705 221.676 37.9705H223.417C224.148 37.9705 224.791 37.4874 224.994 36.7848L229.853 19.9513C230.763 16.7819 234.078 14.2053 237.244 14.2053H246.819C248.326 14.2053 249.541 14.7606 250.333 15.8117C251.147 16.8925 251.359 18.4003 250.915 19.9481L246.593 34.9781C246.582 35.0077 246.567 35.0551 246.558 35.0855L246.095 36.6935C245.953 37.1894 246.051 37.723 246.361 38.1348C246.671 38.5465 247.156 38.7885 247.672 38.7885H249.385C250.116 38.7885 250.759 38.3047 250.961 37.6028L256.054 19.9514C256.963 16.782 260.277 14.2054 263.444 14.2054H273.019C274.525 14.2054 275.74 14.7614 276.532 15.8126C277.347 16.8926 277.559 18.4004 277.115 19.9482L266.274 57.58C265.365 60.7487 262.05 63.3245 258.884 63.3245H252.728C251.996 63.3245 251.352 63.8092 251.151 64.5126L249.115 71.6102C248.208 74.7773 244.893 77.353 241.726 77.353L232.151 77.3526ZM77.3264 35.2839C76.5954 35.2839 75.9524 35.7677 75.7497 36.4704L70.641 54.1971C70.4984 54.6922 70.5965 55.2258 70.9066 55.6377C71.2166 56.0502 71.7021 56.2923 72.2177 56.2923H73.951C74.6821 56.2923 75.325 55.8084 75.5277 55.1057L80.6364 37.379C80.779 36.8839 80.6809 36.3503 80.3709 35.9385C80.0608 35.5259 79.5753 35.2839 79.0598 35.2839H77.3264Z" fill="#F0FF41" style="fill:#F0FF41;fill:color(display-p3 0.9412 1.0000 0.2549);fill-opacity:1;"/>
<path d="M273.488 63.3322C272.991 63.3322 272.591 63.1488 272.329 62.8018C272.06 62.4453 271.99 61.9478 272.137 61.4366L273.042 58.2768C273.051 58.2567 273.079 58.1814 273.085 58.1606L273.275 57.498C273.288 57.4708 273.299 57.4395 273.307 57.4115L273.5 56.7225L273.721 55.955C273.735 55.9261 273.747 55.8933 273.756 55.8621L273.946 55.1787C273.957 55.1546 273.968 55.125 273.974 55.0993L274.168 54.4079C274.182 54.3807 274.196 54.343 274.204 54.3141L274.392 53.6356L276.175 47.4682C276.188 47.4401 276.203 47.3984 276.211 47.3696L276.4 46.6911L276.622 45.9243C276.632 45.9003 276.644 45.8667 276.651 45.8418L276.845 45.1495C276.858 45.1223 276.871 45.0895 276.879 45.0598L277.069 44.3764C277.367 43.3349 278.461 42.4848 279.506 42.4848H282.665C283.162 42.4848 283.563 42.6682 283.825 43.0152C284.094 43.3717 284.164 43.8692 284.017 44.3804L282.888 48.311C282.878 48.3342 282.867 48.3671 282.86 48.3911L282.219 50.6264C282.206 50.6536 282.191 50.6945 282.183 50.7233L281.995 51.4019L281.773 52.1686C281.763 52.1927 281.751 52.2271 281.743 52.252L281.549 52.9434L280.756 55.685C280.709 55.8493 280.742 56.0255 280.844 56.1618C280.947 56.2971 281.107 56.3773 281.277 56.3773C281.277 56.3773 281.845 56.3756 281.845 56.3756C282.079 56.3748 282.287 56.2235 282.359 55.9999C282.372 55.9727 282.399 55.891 282.407 55.8613L282.597 55.1788C282.608 55.1547 282.619 55.1251 282.626 55.0994L282.819 54.408C282.831 54.384 282.843 54.3511 282.851 54.3246L283.043 53.6364L283.264 52.8697C283.276 52.8448 283.29 52.8072 283.297 52.7807L283.489 52.0933L284.38 49.0112C284.392 48.984 284.406 48.9472 284.414 48.9175L284.604 48.2341L284.826 47.4682C284.839 47.4401 284.854 47.3984 284.862 47.3696L285.051 46.6911L285.273 45.9243C285.285 45.8979 285.295 45.869 285.303 45.841L285.496 45.1487C285.509 45.1215 285.522 45.0887 285.53 45.059L285.72 44.3764C286.018 43.3349 287.112 42.4848 288.157 42.4848H291.317C291.814 42.4848 292.214 42.6682 292.476 43.0152C292.745 43.3717 292.815 43.8692 292.669 44.3804L291.539 48.311C291.528 48.335 291.517 48.3686 291.51 48.3935L291.316 49.0857L290.871 50.6248C290.857 50.6529 290.842 50.6945 290.834 50.7233L290.646 51.4019L290.424 52.1686C290.414 52.1919 290.402 52.2248 290.395 52.2495L289.755 54.4848C289.745 54.5072 289.731 54.5448 289.724 54.5689L289.531 55.2595L288.863 57.5692C288.85 57.5965 288.839 57.6286 288.831 57.6565L288.639 58.3455C288.627 58.3704 288.616 58.4008 288.609 58.4264L288.415 59.1162C288.405 59.1402 288.394 59.1707 288.387 59.1955L288.193 59.8878C288.18 59.915 288.17 59.9439 288.161 59.9719L287.969 60.6601C287.96 60.6825 287.946 60.7186 287.939 60.7426L287.746 61.4316C287.448 62.4739 286.354 63.3239 285.308 63.3239L276.647 63.332L273.488 63.3322ZM290.8 63.3243C290.304 63.3243 289.903 63.1408 289.641 62.7939C289.372 62.4373 289.302 61.9398 289.448 61.4287L290.354 58.2688C290.364 58.2464 290.382 58.1999 290.388 58.1767L290.775 56.8227C290.784 56.8018 290.804 56.7482 290.81 56.7274L291.195 55.3774C291.204 55.3565 291.223 55.3029 291.23 55.2812L291.615 53.9304C291.623 53.9112 291.641 53.8632 291.647 53.8423L292.035 52.4851C292.334 51.4396 293.428 50.5896 294.473 50.5896H297.633C298.13 50.5896 298.531 50.7731 298.793 51.12C299.061 51.4765 299.131 51.974 298.985 52.4852L298.079 55.6451C298.07 55.6659 298.05 55.7196 298.044 55.7412L297.658 57.0912C297.65 57.1129 297.63 57.1657 297.623 57.1882L297.239 58.5381C297.23 58.5582 297.211 58.6086 297.205 58.6303L296.818 59.9826C296.81 60.0043 296.79 60.0571 296.783 60.0788L296.398 61.4287C296.099 62.4743 295.005 63.3243 293.96 63.3243H290.8ZM294.815 49.4351C294.318 49.4351 293.918 49.2517 293.657 48.9048C293.387 48.5482 293.317 48.0515 293.464 47.5404L294.37 44.3805C294.67 43.335 295.764 42.485 296.808 42.485H299.968C300.465 42.485 300.866 42.6684 301.128 43.0154C301.396 43.3719 301.466 43.8694 301.32 44.3806L300.414 47.5404C300.114 48.5851 299.02 49.4352 297.975 49.4352L294.815 49.4351Z" fill="#F0FF41" style="fill:#F0FF41;fill:color(display-p3 0.9412 1.0000 0.2549);fill-opacity:1;"/>
</svg>
