<svg width="300" height="301" viewBox="0 0 300 301" fill="none" xmlns="http://www.w3.org/2000/svg">
<g clip-path="url(#clip0_199_4315)">
<path d="M300 0.52002H-0.000244141V300.52H300V0.52002Z" fill="#FFB1C2"/>
<path d="M208.682 248.779C207.382 248.756 206.33 249.719 206.306 251.047C206.282 252.375 207.299 253.375 208.599 253.398C209.899 253.422 210.927 252.43 210.95 251.13C210.974 249.83 209.982 248.803 208.682 248.779Z" fill="#476643"/>
<path d="M219.917 239.582C215.459 239.501 212.777 241.019 212.712 244.629L216.401 244.695C216.423 243.448 217.793 242.57 219.863 242.607C221.721 242.641 223.385 243.122 223.353 244.927L223.349 245.167L217.824 245.358C215.38 245.447 212.361 246.535 212.312 249.293C212.262 252.052 214.944 253.507 217.544 253.554C219.11 253.582 223.263 252.94 223.341 248.561L223.256 253.299L227.105 253.368L227.241 245.844C227.316 241.625 224.855 239.668 219.92 239.579L219.917 239.582ZM223.341 248.456C223.307 250.314 220.672 250.691 219.079 250.769C218.069 250.804 216.352 250.376 216.373 249.206C216.396 247.959 218.811 247.921 219.689 247.886L223.356 247.765L223.343 248.456L223.341 248.456Z" fill="#476643"/>
<path d="M242.545 238.05L242.599 235.078L238.566 235.005L238.539 236.517C238.474 240.127 240.052 240.332 242.022 240.374L237.384 240.291C235.361 240.255 233.505 242.001 233.45 245.106L233.537 240.222L229.477 240.149L229.238 253.406L233.325 253.48L233.442 246.937C233.482 244.709 233.951 243.733 236.472 243.778L238.435 243.814L238.338 249.254C238.29 251.908 239.56 253.603 242.028 253.648L246.114 253.721L246.182 249.953L243.554 249.906C242.705 249.891 242.342 249.354 242.36 248.344L242.441 243.883L246.29 243.953L246.353 240.452L245.106 240.43C243.38 240.399 242.515 239.853 242.548 238.048L242.545 238.05Z" fill="#476643"/>
<path d="M188.223 245.389C185.596 237.097 169.098 226.898 183.292 215.362C180.619 220.044 183.851 224.278 188.52 228.843L189.162 193.089L175.782 192.848L175.163 227.284L174.777 248.793C177.814 251.982 186.323 252.991 188.159 248.936C188.578 248.008 188.668 246.884 188.278 245.56C188.26 245.504 188.24 245.445 188.223 245.389Z" fill="#476643"/>
<path d="M247.478 214.073C247.692 202.148 239.831 193.999 227.567 193.779L192.221 193.144L191.528 231.694C196.375 236.218 201.697 241.19 203.588 247.28C203.588 247.287 203.593 247.292 203.595 247.296C203.752 247.739 204.276 247.72 204.286 247.158L204.562 231.786L224.406 232.143C235.733 232.346 247.248 226.846 247.478 214.07L247.478 214.073ZM205.045 204.96L224.463 205.309C230.254 205.413 233.791 207.692 233.681 213.825C233.594 218.679 230.322 220.665 224.614 220.563L204.771 220.206L205.045 204.96Z" fill="#476643"/>
<path d="M203.595 247.299C203.595 247.299 203.591 247.287 203.588 247.283C203.451 246.896 203.595 247.299 203.595 247.299Z" fill="#476643"/>
<path d="M172.799 208.034C172.92 196.112 160.521 192.53 150.305 192.428L118.89 191.863L118.161 232.416C118.33 238.301 121.072 241.972 121.116 247.206C121.125 248.36 121.076 249.387 120.974 250.321C126.448 248.107 129.197 245.187 129.384 240.761C129.614 235.304 130.612 230.672 137.398 228.123C133.258 234.632 136.347 247.233 144.749 245.243C151.971 243.53 156.154 227.906 163.261 225.709C160.044 234.116 164.442 241.323 171.747 246.789L172.227 220.066L156.839 219.789C163.481 219.857 172.72 215.784 172.797 208.036L172.799 208.034ZM143.066 239.632C140.252 239.058 139.103 234.614 141.213 232.658C144.019 230.056 146.958 225.503 146.389 223.659C154.345 235.086 146.71 240.374 143.066 239.632ZM149.946 219.663L131.518 219.332L131.8 203.677L150.188 203.972C155.382 204.024 159.108 206.192 159.051 211.812C158.995 217.262 155.054 219.713 149.946 219.663Z" fill="#476643"/>
<path d="M87.4618 191.264L61.9127 190.805L61.0535 238.626C61.04 239.377 61.7278 239.294 62.0249 238.683C62.1336 238.461 62.2592 238.205 62.2592 238.205C67.1185 227.121 79.289 219.987 79.3796 215.459C81.2293 218.303 79.278 220.466 80.5004 222.096C81.1843 223.009 83.4848 223.557 85.4753 220.378C87.9831 216.372 87.1955 210.1 85.0009 204.825C91.2457 209.339 93.7632 217.23 91.2716 223.695C89.6269 227.958 86.1264 234.118 88.7825 238.44C90.8938 241.875 97.5911 241.144 95.1948 236.996C93.3333 233.773 92.5583 228.22 99.2297 222.072C97.5926 229.152 99.4897 232.593 102.358 236.106C104.509 238.648 110.195 240.563 112.955 236.522C115.646 232.58 116.464 227.321 116.563 221.778C116.875 204.405 105.519 191.591 87.4641 191.266L87.4618 191.264Z" fill="#476643"/>
<path d="M153.23 60.5919L157.155 65.497L161.254 60.7361L157.352 54.4959L153.23 60.5919Z" fill="#476643"/>
<path d="M153.893 44.1062L157.459 48.5628L161.182 44.2372L157.639 38.5665L153.893 44.1062Z" fill="#476643"/>
<path d="M219.614 121.657C219.838 117.747 219.912 113.484 219.827 108.92C213.421 117.365 201.348 124.553 198.263 126.084C201.879 123.227 214.732 111.344 219.317 97.6831C217.388 70.2438 210.209 35.2536 195.337 2.63312C191.505 -5.77415 183.227 -24.1678 179.158 -21.8236C175.088 -19.4795 165.233 16.1423 163.382 33.8305C162.206 33.244 160.636 32.825 159.038 32.652L167.966 44.0195L162.623 51.3452L167.663 60.8537L160.586 72.0011L164.033 77.4863L156.19 119.3L149.855 77.2315L153.497 71.8737L146.824 60.4793L152.203 51.158L147.127 43.645L156.008 32.5976C154.405 32.7107 153.272 33.0835 152.074 33.6273C150.859 15.8841 142.29 -20.0688 138.307 -22.5577C134.325 -25.0465 125.391 -6.95978 121.26 1.30207C105.226 33.3672 96.792 68.0769 93.8809 95.4292C97.9694 109.246 110.39 121.583 113.901 124.569C110.871 122.927 99.0656 115.31 92.9675 106.641C92.7181 111.199 92.6392 115.462 92.7224 119.377C102.052 125.438 117.285 134.087 122.182 136.846C122.684 137.129 122.51 137.889 121.934 137.921C117.304 138.18 104.532 138.283 94.9638 137.583C96.899 144.085 100.393 150.216 104.834 155.782C107.496 150.223 113.1 144.684 119.678 142.948C115.176 149.695 113.283 158.03 112.593 164.106C125.817 176.372 139.728 184.66 155.013 184.935C170.298 185.21 184.498 177.426 198.155 165.643C197.683 159.546 196.091 151.149 191.834 144.244C198.346 146.215 203.747 151.952 206.207 157.603C210.846 152.201 214.56 146.2 216.725 139.771C207.138 140.127 194.377 139.565 189.76 139.14C189.186 139.087 189.042 138.322 189.551 138.056C194.541 135.475 210.075 127.379 219.619 121.657L219.614 121.657ZM174.142 25.5784C174.708 12.3062 177.52 -5.39028 181.404 -5.32049C185.288 -5.2507 191.217 10.5345 193.644 17.3834C196.07 24.2322 204.788 44.6788 202.224 51.2774C200.236 56.3997 186.922 49.6321 183.027 46.8051C173.88 40.1613 173.779 34.0825 174.142 25.5784ZM147.786 142.536C147.796 142.464 147.798 142.387 147.817 142.32C147.85 142.209 147.905 142.115 147.958 142.016C147.984 141.967 147.999 141.909 148.033 141.863C148.131 141.726 148.249 141.604 148.4 141.5C149.971 140.407 152.556 140.048 155.818 140.014C159.077 140.168 161.647 140.619 163.178 141.766C163.323 141.875 163.439 142.001 163.532 142.142C163.564 142.189 163.574 142.245 163.599 142.294C163.648 142.393 163.7 142.492 163.728 142.604C163.746 142.671 163.744 142.746 163.752 142.818C163.764 142.925 163.784 143.028 163.779 143.142C163.778 143.223 163.757 143.314 163.747 143.4C163.733 143.513 163.722 143.625 163.694 143.743C163.671 143.838 163.637 143.935 163.605 144.032C163.568 144.153 163.531 144.271 163.482 144.398C163.441 144.499 163.39 144.605 163.341 144.712C163.283 144.839 163.225 144.963 163.158 145.092C163.1 145.203 163.033 145.313 162.968 145.424C162.891 145.555 162.814 145.684 162.728 145.817C162.654 145.932 162.573 146.047 162.494 146.162C162.401 146.295 162.308 146.426 162.208 146.562C162.12 146.679 162.027 146.794 161.934 146.911C161.827 147.044 161.717 147.179 161.601 147.312C161.501 147.429 161.397 147.545 161.292 147.66C161.171 147.793 161.05 147.925 160.922 148.056C160.811 148.17 160.697 148.287 160.583 148.401C160.451 148.531 160.318 148.659 160.181 148.787C160.063 148.899 159.942 149.011 159.819 149.12C159.677 149.245 159.535 149.368 159.389 149.491C159.264 149.599 159.136 149.703 159.006 149.808C158.858 149.926 158.707 150.042 158.556 150.158C158.423 150.258 158.291 150.356 158.159 150.451C158.006 150.562 157.848 150.667 157.691 150.773C157.556 150.864 157.42 150.954 157.283 151.04C157.126 151.14 156.966 151.232 156.806 151.327C156.67 151.406 156.531 151.488 156.395 151.562C156.348 151.587 156.303 151.616 156.256 151.641C156.235 151.652 156.211 151.656 156.19 151.665C155.995 151.766 155.798 151.872 155.603 151.964C155.412 151.868 155.221 151.755 155.027 151.644C155.007 151.635 154.983 151.63 154.963 151.618C154.917 151.591 154.873 151.56 154.827 151.534C154.693 151.454 154.56 151.368 154.427 151.285C154.27 151.186 154.114 151.086 153.957 150.981C153.824 150.89 153.691 150.794 153.56 150.699C153.406 150.589 153.255 150.477 153.103 150.36C152.972 150.26 152.844 150.156 152.715 150.051C152.569 149.932 152.422 149.811 152.28 149.687C152.154 149.578 152.03 149.469 151.907 149.357C151.767 149.229 151.627 149.101 151.493 148.97C151.374 148.857 151.257 148.74 151.14 148.624C151.008 148.492 150.88 148.357 150.752 148.222C150.64 148.104 150.533 147.985 150.426 147.867C150.305 147.73 150.186 147.595 150.07 147.456C149.97 147.335 149.87 147.215 149.774 147.095C149.665 146.958 149.561 146.818 149.458 146.682C149.37 146.561 149.281 146.444 149.197 146.323C149.1 146.184 149.011 146.048 148.923 145.911C148.848 145.794 148.771 145.676 148.701 145.561C148.62 145.424 148.548 145.29 148.476 145.159C148.415 145.046 148.352 144.933 148.298 144.821C148.233 144.687 148.18 144.56 148.126 144.429C148.082 144.323 148.035 144.216 147.997 144.113C147.953 143.986 147.92 143.865 147.887 143.743C147.861 143.645 147.828 143.546 147.811 143.451C147.788 143.332 147.78 143.218 147.771 143.103C147.763 143.017 147.748 142.926 147.747 142.845C147.75 142.731 147.768 142.629 147.786 142.524L147.786 142.536ZM122.42 16.1036C125.091 9.34638 131.583 -6.2157 135.467 -6.14591C139.351 -6.07611 141.523 11.71 141.613 24.9939C141.669 33.5055 141.351 39.5768 131.971 45.8877C127.979 48.5753 114.428 54.8578 112.625 49.6675C110.302 42.981 119.749 22.8608 122.418 16.1036L122.42 16.1036ZM138.182 129.67C138.128 129.96 137.741 130.032 137.582 129.782C130.004 117.89 120.255 118.327 109.134 104.598C94.2055 86.1707 100.202 72.1283 104.069 59.5761C104.237 59.0347 105.019 59.1209 105.065 59.6847C105.821 68.623 112.645 83.4868 122.703 90.6263C134.481 98.9879 142.041 109.151 138.182 129.67ZM140.034 104.206C138.513 97.6644 134.592 90.9772 131.313 86.1302C128.112 81.4009 122.173 74.8868 117.729 72.8829C117.53 72.7933 117.594 72.4989 117.81 72.5005C129.522 72.6179 135.89 80.7892 137.307 83.4995C139.099 86.9262 140.855 93.4698 140.712 104.118C140.705 104.521 140.124 104.596 140.034 104.204L140.034 104.206ZM165.11 162.418C162.466 162.766 158.69 162.333 155.461 159.867C152.146 162.216 148.357 162.513 145.727 162.07C141.698 161.393 139.896 156.391 140.324 154.072C140.334 154.021 140.413 154.022 140.419 154.074C140.653 156.079 143.107 159.99 146.409 159.839C149.459 159.701 153.122 156.424 155.577 153.446C157.923 156.512 161.468 159.917 164.509 160.165C167.803 160.433 170.396 156.611 170.702 154.618C170.709 154.567 170.789 154.566 170.797 154.619C171.141 156.952 169.161 161.886 165.11 162.418ZM172.201 104.684C172.439 94.0373 174.431 87.5633 176.345 84.201C177.859 81.541 184.516 73.606 196.225 73.9095C196.443 73.9134 196.494 74.2121 196.292 74.2946C191.778 76.1375 185.609 82.434 182.239 87.0452C178.787 91.7689 174.628 98.311 172.874 104.796C172.769 105.185 172.189 105.089 172.199 104.686L172.201 104.684ZM174.407 130.442C174.24 130.685 173.855 130.601 173.812 130.308C170.695 109.664 178.613 99.7785 190.684 91.8454C200.991 85.0719 208.343 70.4629 209.422 61.5575C209.49 60.9934 210.275 60.9354 210.424 61.4848C213.835 74.1677 219.323 88.4142 203.744 106.295C192.137 119.616 182.41 118.829 174.409 130.442L174.407 130.442Z" fill="#476643"/>
<path d="M117.349 97.1467C116.761 96.95 116.16 97.3859 116.161 98.0025C116.165 101.513 116.514 105.282 119.711 108.133C122.385 110.52 129.585 114.737 132.391 117.553C132.681 117.845 133.165 117.595 133.114 117.187C132.495 112.302 131.043 107.255 128.242 104.134C125.735 101.341 120.663 98.2509 117.349 97.1467Z" fill="#476643"/>
<path d="M195.796 98.5562C192.444 99.5429 187.264 102.446 184.659 105.147C181.747 108.166 180.113 113.157 179.32 118.017C179.255 118.423 179.729 118.69 180.03 118.409C182.936 115.698 190.282 111.739 193.041 109.451C196.338 106.716 196.822 102.96 196.952 99.4541C196.975 98.8356 196.39 98.3807 195.796 98.5562Z" fill="#476643"/>
<path d="M247.11 194.132L245.396 194.102L245.378 195.123L247.092 195.153L247.013 199.561L248.325 199.584L248.404 195.177L250.132 195.208L250.15 194.187L248.422 194.156L247.11 194.132Z" fill="#476643"/>
<path d="M256.602 194.303L255.262 194.279L253.739 197.471L252.359 194.227L251.006 194.202L250.327 199.623L251.571 199.645C251.555 199.48 251.551 199.314 251.559 199.154C251.567 198.994 251.581 198.833 251.602 198.678C251.613 198.622 251.618 198.564 251.62 198.499L251.925 196.141L253.176 199.523L254.032 199.538L255.53 196.205L255.799 199.721L257.097 199.744L256.602 194.303Z" fill="#476643"/>
<g filter="url(#filter0_d_199_4315)">
<path d="M44.9998 268.755L28.4998 278.282L28.4998 259.229L44.9998 268.755Z" fill="white"/>
</g>
</g>
<defs>
<filter id="filter0_d_199_4315" x="7.99976" y="242.755" width="52.9155" height="52" filterUnits="userSpaceOnUse" color-interpolation-filters="sRGB">
<feFlood flood-opacity="0" result="BackgroundImageFix"/>
<feColorMatrix in="SourceAlpha" type="matrix" values="0 0 0 0 0 0 0 0 0 0 0 0 0 0 0 0 0 0 127 0" result="hardAlpha"/>
<feOffset/>
<feGaussianBlur stdDeviation="7.5"/>
<feComposite in2="hardAlpha" operator="out"/>
<feColorMatrix type="matrix" values="0 0 0 0 0 0 0 0 0 0 0 0 0 0 0 0 0 0 0.25 0"/>
<feBlend mode="normal" in2="BackgroundImageFix" result="effect1_dropShadow_199_4315"/>
<feBlend mode="normal" in="SourceGraphic" in2="effect1_dropShadow_199_4315" result="shape"/>
</filter>
<clipPath id="clip0_199_4315">
<rect x="-0.000244141" y="0.52002" width="300" height="300" rx="36" fill="white"/>
</clipPath>
</defs>
</svg>
