<svg width="84" height="84" viewBox="0 0 84 84" fill="none" xmlns="http://www.w3.org/2000/svg">
<rect width="84" height="84" fill="#172DD7" style="fill:#172DD7;fill:color(display-p3 0.0902 0.1765 0.8431);fill-opacity:1;"/>
<path d="M28.5899 69.2727C27.3242 69.2727 26.303 68.8023 25.637 67.9128C24.9524 66.9989 24.774 65.723 25.1471 64.4133L26.6455 59.1518C26.765 58.7329 26.6818 58.2821 26.4212 57.9336C26.1606 57.5858 25.7529 57.381 25.3198 57.381H21.0116C19.7453 57.381 18.724 56.9112 18.0583 56.0218C17.3738 55.1072 17.1953 53.8314 17.5687 52.5216L22.7163 34.5286L23.2847 32.5517C24.0487 29.869 26.8349 27.6888 29.4966 27.6888H34.6517C35.2668 27.6888 35.8079 27.2787 35.9773 26.6835L37.6821 20.6987C38.4453 18.0187 41.2316 15.8385 43.8933 15.8385L54.9181 15.8189L62.9891 15.8182C64.2551 15.8182 65.2763 16.288 65.942 17.1774C66.6265 18.0913 66.805 19.3672 66.4319 20.6769L64.124 28.7803C63.3611 31.4595 60.5748 33.6391 57.9131 33.6391L46.8637 33.6601H41.7104C41.0959 33.6601 40.5555 34.0695 40.3851 34.6641L36.0883 49.6722C35.9681 50.0919 36.0513 50.5441 36.3126 50.8925C36.5732 51.2403 36.9809 51.445 37.4136 51.445L44.7152 51.4308H52.7622C54.0282 51.4308 55.0494 51.9006 55.7151 52.7901C56.3996 53.7046 56.5781 54.9805 56.2047 56.2902L53.8969 64.3923C53.1339 67.0722 50.3476 69.2517 47.686 69.2517L36.6369 69.2727H28.5899Z" fill="#F0FF41" style="fill:#F0FF41;fill:color(display-p3 0.9412 1.0000 0.2549);fill-opacity:1;"/>
</svg>
