<svg width="960" height="540" viewBox="0 0 960 540" fill="none" xmlns="http://www.w3.org/2000/svg">
  <rect width="960" height="540" fill="#302D58"/>
  <circle cx="170" cy="109" r="115" fill="#554E9D" opacity="0.35"/>
  <circle cx="813" cy="437" r="167" fill="#6759B0" opacity="0.25"/>
  <rect x="297" y="48" width="366" height="444" rx="35" fill="#20202D" stroke="#11111A" stroke-width="10"/>
  <rect x="420" y="67" width="120" height="13" rx="6.5" fill="#393946"/>
  <text x="332" y="137" fill="#EEEAF7" font-family="Arial, sans-serif" font-size="21" font-weight="700"># imagine</text>
  <rect x="329" y="160" width="302" height="3" rx="1.5" fill="#393946"/>
  <rect x="330" y="189" width="52" height="52" rx="10" fill="#665FB6"/>
  <text x="347" y="222" fill="white" font-family="Arial, sans-serif" font-size="20" font-weight="700">C</text>
  <text x="394" y="211" fill="#F1EFF6" font-family="Arial, sans-serif" font-size="16" font-weight="700">/imagine</text>
  <text x="394" y="233" fill="#B8B5C2" font-family="Arial, sans-serif" font-size="14">a lavender cat in sunlight</text>
  <rect x="330" y="270" width="52" height="52" rx="10" fill="#8077C4"/>
  <text x="347" y="303" fill="white" font-family="Arial, sans-serif" font-size="20" font-weight="700">C</text>
  <text x="394" y="293" fill="#F1EFF6" font-family="Arial, sans-serif" font-size="16" font-weight="700">Comfy bot</text>
  <text x="394" y="315" fill="#B8B5C2" font-family="Arial, sans-serif" font-size="14">Your image is ready</text>
  <rect x="394" y="335" width="194" height="108" rx="10" fill="url(#paint0_linear)"/>
  <circle cx="534" cy="360" r="18" fill="#FFF0A8"/>
  <path d="M394 406C427 374 460 387 493 417C526 448 557 422 588 388V443H394V406Z" fill="#5D3A89" opacity="0.87"/>
  <defs><linearGradient id="paint0_linear" x1="403" y1="340" x2="577" y2="433" gradientUnits="userSpaceOnUse"><stop stop-color="#E5A7E8"/><stop offset="0.47" stop-color="#E9D976"/><stop offset="1" stop-color="#7164B7"/></linearGradient></defs>
</svg>
